<svg width="24" height="23" viewBox="0 0 24 23" fill="none" xmlns="http://www.w3.org/2000/svg">
<mask id="mask0_18_823" style="mask-type:luminance" maskUnits="userSpaceOnUse" x="0" y="1" width="23" height="22">
<path d="M23 1H0V22.3333H23V1Z" fill="white"/>
</mask>
<g mask="url(#mask0_18_823)">
<path d="M6.75 6.69141C6.75005 6.36735 6.81404 6.1114 6.98242 5.94336C7.15357 5.7727 7.37569 5.75004 7.53906 5.75C7.70248 5.75 7.92538 5.77255 8.09668 5.94336C8.26502 6.1114 8.32906 6.36738 8.3291 6.69141L8.3291 19.8994C8.32911 20.1501 8.38795 20.2623 8.41406 20.3154C8.4185 20.3244 8.4396 20.3637 8.4502 20.4023C8.45632 20.4247 8.46722 20.4748 8.4541 20.5352C8.43839 20.6072 8.39485 20.6632 8.34277 20.6982C8.29971 20.7272 8.25778 20.7371 8.2373 20.7412C8.21425 20.7458 8.19268 20.7472 8.17773 20.748C8.14874 20.7497 8.11246 20.75 8.0791 20.75C7.93696 20.75 7.62844 20.7518 7.35254 20.6631C7.21211 20.6179 7.06074 20.544 6.94336 20.417C6.82071 20.2843 6.75001 20.1099 6.75 19.8994L6.75 6.69141Z" fill="#DDB827" stroke="#DDB827" stroke-width="0.5"/>
<path d="M12.276 11.5029C12.276 11.2498 12.3564 11.0403 12.5319 10.9043C12.6946 10.7785 12.8966 10.75 13.0651 10.75C13.2337 10.75 13.4365 10.7784 13.5993 10.9043C13.7748 11.0403 13.8551 11.2498 13.8551 11.5029L13.8551 20.2695C13.8551 20.5181 13.7792 20.7536 13.6471 20.9326C13.5155 21.1109 13.3121 21.25 13.0651 21.25C12.8183 21.2498 12.6156 21.1108 12.4841 20.9326C12.3519 20.7536 12.2761 20.5182 12.276 20.2695L12.276 11.5029Z" fill="#DDB827" stroke="#DDB827" stroke-width="0.5"/>
<path d="M17.671 13.4385C17.6711 13.3399 17.7059 13.2493 17.7462 13.1777C17.7881 13.1032 17.8453 13.0324 17.9122 12.9717C18.0439 12.8522 18.236 12.7501 18.4601 12.75C18.6905 12.75 18.884 12.8637 19.0118 12.9834C19.0772 13.0447 19.1331 13.1145 19.1739 13.1855C19.2116 13.2511 19.25 13.3407 19.2501 13.4385V19.7373C19.2501 19.9599 19.0699 20.0893 18.9503 20.1475C18.812 20.2148 18.6378 20.25 18.4601 20.25C18.2825 20.2499 18.109 20.2147 17.9708 20.1475C17.8512 20.0893 17.671 19.9599 17.671 19.7373V13.4385Z" fill="#DDB827" stroke="#DDB827" stroke-width="0.5"/>
</g>
<path d="M15.75 21.5H9.75C4.32 21.5 2 19.18 2 13.75V7.75C2 2.32 4.32 0 9.75 0H15.75C21.18 0 23.5 2.32 23.5 7.75V13.75C23.5 19.18 21.18 21.5 15.75 21.5ZM9.75 1.5C5.14 1.5 3.5 3.14 3.5 7.75V13.75C3.5 18.36 5.14 20 9.75 20H15.75C20.36 20 22 18.36 22 13.75V7.75C22 3.14 20.36 1.5 15.75 1.5H9.75Z" fill="#DDB827"/>
</svg>
